<mxfile host="Electron" modified="2023-06-13T09:34:17.719Z" agent="Mozilla/5.0 (Windows NT 10.0; Win64; x64) AppleWebKit/537.36 (KHTML, like Gecko) draw.io/21.2.8 Chrome/112.0.5615.165 Electron/24.2.0 Safari/537.36" etag="qs1c9cV2riG8fEy2mrqB" version="21.2.8" type="device">
  <diagram name="file locali" id="3hGKEEta10mfcVxAHoHe">
    <mxGraphModel dx="1180" dy="862" grid="1" gridSize="10" guides="1" tooltips="1" connect="1" arrows="1" fold="1" page="1" pageScale="1" pageWidth="827" pageHeight="1169" background="#ffffff" math="0" shadow="0">
      <root>
        <mxCell id="0" />
        <mxCell id="1" parent="0" />
        <mxCell id="XTUAecjlCWOi9ReUw6i1-3" value="Article Analyzer" style="swimlane;whiteSpace=wrap;html=1;" parent="1" vertex="1">
          <mxGeometry x="120" y="40" width="600" height="400" as="geometry">
            <mxRectangle x="170" y="40" width="130" height="30" as="alternateBounds" />
          </mxGeometry>
        </mxCell>
        <mxCell id="XTUAecjlCWOi9ReUw6i1-5" value="Analizza da file" style="ellipse;whiteSpace=wrap;html=1;" parent="XTUAecjlCWOi9ReUw6i1-3" vertex="1">
          <mxGeometry x="27" y="158" width="140" height="70" as="geometry" />
        </mxCell>
        <mxCell id="XTUAecjlCWOi9ReUw6i1-9" value="Verifica input" style="ellipse;whiteSpace=wrap;html=1;" parent="XTUAecjlCWOi9ReUw6i1-3" vertex="1">
          <mxGeometry x="230" y="40" width="140" height="70" as="geometry" />
        </mxCell>
        <mxCell id="XTUAecjlCWOi9ReUw6i1-10" value="&amp;lt;&amp;lt;include&amp;gt;&amp;gt;" style="endArrow=open;endSize=12;dashed=1;html=1;rounded=0;entryX=0;entryY=1;entryDx=0;entryDy=0;" parent="XTUAecjlCWOi9ReUw6i1-3" source="XTUAecjlCWOi9ReUw6i1-5" target="XTUAecjlCWOi9ReUw6i1-9" edge="1">
          <mxGeometry width="160" relative="1" as="geometry">
            <mxPoint x="117" y="143" as="sourcePoint" />
            <mxPoint x="187" y="163" as="targetPoint" />
          </mxGeometry>
        </mxCell>
        <mxCell id="oC5YKYL8yRnIR4rRalR6-2" value="Estrai e visualizza&lt;br&gt;termini piÃ¹ importanti" style="ellipse;whiteSpace=wrap;html=1;" parent="XTUAecjlCWOi9ReUw6i1-3" vertex="1">
          <mxGeometry x="440" y="158" width="140" height="70" as="geometry" />
        </mxCell>
        <mxCell id="oC5YKYL8yRnIR4rRalR6-3" value="Confronta con blacklist" style="ellipse;whiteSpace=wrap;html=1;" parent="XTUAecjlCWOi9ReUw6i1-3" vertex="1">
          <mxGeometry x="440" y="40" width="140" height="70" as="geometry" />
        </mxCell>
        <mxCell id="oC5YKYL8yRnIR4rRalR6-7" value="&amp;lt;&amp;lt;extend&amp;gt;&amp;gt;" style="endArrow=open;endSize=12;dashed=1;html=1;rounded=0;" parent="XTUAecjlCWOi9ReUw6i1-3" source="oC5YKYL8yRnIR4rRalR6-3" target="oC5YKYL8yRnIR4rRalR6-2" edge="1">
          <mxGeometry width="160" relative="1" as="geometry">
            <mxPoint x="117" y="263" as="sourcePoint" />
            <mxPoint x="277" y="263" as="targetPoint" />
          </mxGeometry>
        </mxCell>
        <mxCell id="LJG7AM5HanCOoMwuTI5K-1" value="&lt;b&gt;UC2&lt;/b&gt;: Da sorgente CSV" style="ellipse;whiteSpace=wrap;html=1;" parent="XTUAecjlCWOi9ReUw6i1-3" vertex="1">
          <mxGeometry x="129" y="303" width="140" height="70" as="geometry" />
        </mxCell>
        <mxCell id="LJG7AM5HanCOoMwuTI5K-2" value="&lt;b&gt;UC1&lt;/b&gt;: Da file di log" style="ellipse;whiteSpace=wrap;html=1;" parent="XTUAecjlCWOi9ReUw6i1-3" vertex="1">
          <mxGeometry x="129" y="223" width="140" height="70" as="geometry" />
        </mxCell>
        <mxCell id="LJG7AM5HanCOoMwuTI5K-3" value="" style="endArrow=block;endSize=10;endFill=0;shadow=0;strokeWidth=1;rounded=0;edgeStyle=elbowEdgeStyle;elbow=vertical;entryX=0.5;entryY=1;entryDx=0;entryDy=0;exitX=0;exitY=0.5;exitDx=0;exitDy=0;" parent="XTUAecjlCWOi9ReUw6i1-3" source="LJG7AM5HanCOoMwuTI5K-1" target="XTUAecjlCWOi9ReUw6i1-5" edge="1">
          <mxGeometry width="160" relative="1" as="geometry">
            <mxPoint x="182" y="523" as="sourcePoint" />
            <mxPoint x="87" y="228" as="targetPoint" />
            <Array as="points">
              <mxPoint x="97" y="338" />
            </Array>
          </mxGeometry>
        </mxCell>
        <mxCell id="LJG7AM5HanCOoMwuTI5K-4" value="" style="endArrow=block;endSize=10;endFill=0;shadow=0;strokeWidth=1;rounded=0;edgeStyle=elbowEdgeStyle;elbow=vertical;entryX=0.5;entryY=1;entryDx=0;entryDy=0;exitX=0;exitY=0.5;exitDx=0;exitDy=0;" parent="XTUAecjlCWOi9ReUw6i1-3" source="LJG7AM5HanCOoMwuTI5K-2" target="XTUAecjlCWOi9ReUw6i1-5" edge="1">
          <mxGeometry width="160" relative="1" as="geometry">
            <mxPoint x="147" y="348" as="sourcePoint" />
            <mxPoint x="87" y="228" as="targetPoint" />
            <Array as="points">
              <mxPoint x="107" y="258" />
            </Array>
          </mxGeometry>
        </mxCell>
        <mxCell id="LJG7AM5HanCOoMwuTI5K-5" value="&amp;lt;&amp;lt;include&amp;gt;&amp;gt;" style="endArrow=open;endSize=12;dashed=1;html=1;rounded=0;" parent="XTUAecjlCWOi9ReUw6i1-3" source="oC5YKYL8yRnIR4rRalR6-2" target="LJG7AM5HanCOoMwuTI5K-6" edge="1">
          <mxGeometry width="160" relative="1" as="geometry">
            <mxPoint x="477" y="287.5" as="sourcePoint" />
            <mxPoint x="457" y="213" as="targetPoint" />
          </mxGeometry>
        </mxCell>
        <mxCell id="LJG7AM5HanCOoMwuTI5K-6" value="Salva i risultati" style="ellipse;whiteSpace=wrap;html=1;" parent="XTUAecjlCWOi9ReUw6i1-3" vertex="1">
          <mxGeometry x="440" y="303" width="140" height="70" as="geometry" />
        </mxCell>
        <mxCell id="F6dmfGvmuj5uZ1oYCxl1-1" value="&amp;lt;&amp;lt;include&amp;gt;&amp;gt;" style="endArrow=open;endSize=12;dashed=1;html=1;rounded=0;exitX=1;exitY=1;exitDx=0;exitDy=0;" parent="XTUAecjlCWOi9ReUw6i1-3" source="XTUAecjlCWOi9ReUw6i1-9" target="oC5YKYL8yRnIR4rRalR6-2" edge="1">
          <mxGeometry width="160" relative="1" as="geometry">
            <mxPoint x="107" y="168" as="sourcePoint" />
            <mxPoint x="160" y="100" as="targetPoint" />
          </mxGeometry>
        </mxCell>
        <mxCell id="ibqRL4TmSdFlkQjQ8qE8-1" value="Visualizza errore" style="ellipse;whiteSpace=wrap;html=1;" parent="XTUAecjlCWOi9ReUw6i1-3" vertex="1">
          <mxGeometry x="230" y="148" width="140" height="70" as="geometry" />
        </mxCell>
        <mxCell id="ibqRL4TmSdFlkQjQ8qE8-2" value="&amp;lt;&amp;lt;extend&amp;gt;&amp;gt;" style="endArrow=open;endSize=12;dashed=1;html=1;rounded=0;exitX=0.5;exitY=0;exitDx=0;exitDy=0;entryX=0.5;entryY=1;entryDx=0;entryDy=0;" parent="XTUAecjlCWOi9ReUw6i1-3" source="ibqRL4TmSdFlkQjQ8qE8-1" target="XTUAecjlCWOi9ReUw6i1-9" edge="1">
          <mxGeometry width="160" relative="1" as="geometry">
            <mxPoint x="136" y="210" as="sourcePoint" />
            <mxPoint x="9" y="15" as="targetPoint" />
          </mxGeometry>
        </mxCell>
        <mxCell id="7YsP11LX89-YqVXcMB3r-1" value="" style="group" parent="1" vertex="1" connectable="0">
          <mxGeometry x="40" y="200" width="30" height="60" as="geometry" />
        </mxCell>
        <mxCell id="XTUAecjlCWOi9ReUw6i1-1" value="Utente" style="shape=umlActor;verticalLabelPosition=bottom;verticalAlign=top;html=1;" parent="7YsP11LX89-YqVXcMB3r-1" vertex="1">
          <mxGeometry width="30" height="60" as="geometry" />
        </mxCell>
        <mxCell id="XTUAecjlCWOi9ReUw6i1-14" value="" style="endArrow=none;html=1;rounded=0;entryX=0;entryY=0.5;entryDx=0;entryDy=0;" parent="7YsP11LX89-YqVXcMB3r-1" target="XTUAecjlCWOi9ReUw6i1-5" edge="1">
          <mxGeometry width="50" height="50" relative="1" as="geometry">
            <mxPoint x="30" y="33" as="sourcePoint" />
            <mxPoint x="154.00000000000017" y="65" as="targetPoint" />
          </mxGeometry>
        </mxCell>
      </root>
    </mxGraphModel>
  </diagram>
</mxfile>
